<mxfile host="app.diagrams.net" modified="2022-09-12T03:56:06.953Z" agent="5.0 (Macintosh; Intel Mac OS X 10_15_7) AppleWebKit/605.1.15 (KHTML, like Gecko) Version/15.6 Safari/605.1.15" etag="2BQzKEnF47plBUtV0q_j" version="20.3.0" type="github">
  <diagram name="Page-1" id="5d7acffa-a066-3a61-03fe-96351882024d">
    <mxGraphModel dx="1234" dy="825" grid="1" gridSize="10" guides="1" tooltips="1" connect="1" arrows="1" fold="1" page="1" pageScale="1" pageWidth="1100" pageHeight="850" background="#ffffff" math="0" shadow="0">
      <root>
        <mxCell id="0" />
        <mxCell id="1" parent="0" />
        <mxCell id="21ea969265ad0168-6" value="Pre-preocessing" style="swimlane;html=1;fontStyle=0;childLayout=stackLayout;horizontal=1;startSize=26;fillColor=#e0e0e0;horizontalStack=0;resizeParent=1;resizeLast=0;collapsible=1;marginBottom=0;swimlaneFillColor=#ffffff;align=center;rounded=1;shadow=0;comic=0;labelBackgroundColor=none;strokeWidth=1;fontFamily=Verdana;fontSize=12" parent="1" vertex="1">
          <mxGeometry x="20" y="10" width="160" height="86" as="geometry">
            <mxRectangle x="160" y="74" width="90" height="30" as="alternateBounds" />
          </mxGeometry>
        </mxCell>
        <mxCell id="21ea969265ad0168-7" value="X Features" style="text;html=1;strokeColor=none;fillColor=none;spacingLeft=4;spacingRight=4;whiteSpace=wrap;overflow=hidden;rotatable=0;points=[[0,0.5],[1,0.5]];portConstraint=eastwest;" parent="21ea969265ad0168-6" vertex="1">
          <mxGeometry y="26" width="160" height="26" as="geometry" />
        </mxCell>
        <mxCell id="21ea969265ad0168-8" value="Y Label" style="text;html=1;strokeColor=none;fillColor=none;spacingLeft=4;spacingRight=4;whiteSpace=wrap;overflow=hidden;rotatable=0;points=[[0,0.5],[1,0.5]];portConstraint=eastwest;" parent="21ea969265ad0168-6" vertex="1">
          <mxGeometry y="52" width="160" height="26" as="geometry" />
        </mxCell>
        <mxCell id="21ea969265ad0168-14" value="Prediction" style="swimlane;html=1;fontStyle=0;childLayout=stackLayout;horizontal=1;startSize=26;fillColor=#e0e0e0;horizontalStack=0;resizeParent=1;resizeLast=0;collapsible=1;marginBottom=0;swimlaneFillColor=#ffffff;align=center;rounded=1;shadow=0;comic=0;labelBackgroundColor=none;strokeWidth=1;fontFamily=Verdana;fontSize=12" parent="1" vertex="1">
          <mxGeometry x="840" y="40.5" width="160" height="110" as="geometry" />
        </mxCell>
        <mxCell id="21ea969265ad0168-15" value="Row 1" style="text;html=1;strokeColor=none;fillColor=none;spacingLeft=4;spacingRight=4;whiteSpace=wrap;overflow=hidden;rotatable=0;points=[[0,0.5],[1,0.5]];portConstraint=eastwest;" parent="21ea969265ad0168-14" vertex="1">
          <mxGeometry y="26" width="160" height="26" as="geometry" />
        </mxCell>
        <mxCell id="21ea969265ad0168-16" value="Row 2" style="text;html=1;strokeColor=none;fillColor=none;spacingLeft=4;spacingRight=4;whiteSpace=wrap;overflow=hidden;rotatable=0;points=[[0,0.5],[1,0.5]];portConstraint=eastwest;" parent="21ea969265ad0168-14" vertex="1">
          <mxGeometry y="52" width="160" height="26" as="geometry" />
        </mxCell>
        <mxCell id="21ea969265ad0168-17" value="Row 3" style="text;html=1;strokeColor=none;fillColor=none;spacingLeft=4;spacingRight=4;whiteSpace=wrap;overflow=hidden;rotatable=0;points=[[0,0.5],[1,0.5]];portConstraint=eastwest;" parent="21ea969265ad0168-14" vertex="1">
          <mxGeometry y="78" width="160" height="26" as="geometry" />
        </mxCell>
        <mxCell id="y2D_7VBED0uBOT9pCtEF-34" style="edgeStyle=orthogonalEdgeStyle;rounded=0;orthogonalLoop=1;jettySize=auto;html=1;exitX=0.5;exitY=1;exitDx=0;exitDy=0;entryX=0.5;entryY=0;entryDx=0;entryDy=0;" edge="1" parent="1" source="21ea969265ad0168-18" target="y2D_7VBED0uBOT9pCtEF-32">
          <mxGeometry relative="1" as="geometry" />
        </mxCell>
        <mxCell id="21ea969265ad0168-18" value="Training" style="swimlane;html=1;fontStyle=0;childLayout=stackLayout;horizontal=1;startSize=26;fillColor=#e0e0e0;horizontalStack=0;resizeParent=1;resizeLast=0;collapsible=1;marginBottom=0;swimlaneFillColor=#ffffff;align=center;rounded=1;shadow=0;comic=0;labelBackgroundColor=none;strokeWidth=1;fontFamily=Verdana;fontSize=12" parent="1" vertex="1">
          <mxGeometry x="20" y="365" width="160" height="60" as="geometry" />
        </mxCell>
        <mxCell id="21ea969265ad0168-19" value="Model" style="text;html=1;strokeColor=none;fillColor=none;spacingLeft=4;spacingRight=4;whiteSpace=wrap;overflow=hidden;rotatable=0;points=[[0,0.5],[1,0.5]];portConstraint=eastwest;" parent="21ea969265ad0168-18" vertex="1">
          <mxGeometry y="26" width="160" height="26" as="geometry" />
        </mxCell>
        <mxCell id="y2D_7VBED0uBOT9pCtEF-5" style="edgeStyle=orthogonalEdgeStyle;rounded=0;orthogonalLoop=1;jettySize=auto;html=1;exitX=1;exitY=0.5;exitDx=0;exitDy=0;entryX=0.5;entryY=0;entryDx=0;entryDy=0;" edge="1" parent="1" source="21ea969265ad0168-7" target="y2D_7VBED0uBOT9pCtEF-6">
          <mxGeometry relative="1" as="geometry">
            <mxPoint x="260" y="49" as="targetPoint" />
          </mxGeometry>
        </mxCell>
        <mxCell id="y2D_7VBED0uBOT9pCtEF-6" value="X Features" style="swimlane;fontStyle=0;childLayout=stackLayout;horizontal=1;startSize=26;horizontalStack=0;resizeParent=1;resizeParentMax=0;resizeLast=0;collapsible=1;marginBottom=0;align=center;fontSize=14;" vertex="1" parent="1">
          <mxGeometry x="320" y="130" width="160" height="116" as="geometry" />
        </mxCell>
        <mxCell id="y2D_7VBED0uBOT9pCtEF-7" value="Binned data" style="text;strokeColor=none;fillColor=none;spacingLeft=4;spacingRight=4;overflow=hidden;rotatable=0;points=[[0,0.5],[1,0.5]];portConstraint=eastwest;fontSize=12;" vertex="1" parent="y2D_7VBED0uBOT9pCtEF-6">
          <mxGeometry y="26" width="160" height="30" as="geometry" />
        </mxCell>
        <mxCell id="y2D_7VBED0uBOT9pCtEF-8" value="Binned cut data" style="text;strokeColor=none;fillColor=none;spacingLeft=4;spacingRight=4;overflow=hidden;rotatable=0;points=[[0,0.5],[1,0.5]];portConstraint=eastwest;fontSize=12;" vertex="1" parent="y2D_7VBED0uBOT9pCtEF-6">
          <mxGeometry y="56" width="160" height="30" as="geometry" />
        </mxCell>
        <mxCell id="y2D_7VBED0uBOT9pCtEF-9" value="Photon arrival time" style="text;strokeColor=none;fillColor=none;spacingLeft=4;spacingRight=4;overflow=hidden;rotatable=0;points=[[0,0.5],[1,0.5]];portConstraint=eastwest;fontSize=12;" vertex="1" parent="y2D_7VBED0uBOT9pCtEF-6">
          <mxGeometry y="86" width="160" height="30" as="geometry" />
        </mxCell>
        <mxCell id="y2D_7VBED0uBOT9pCtEF-35" style="edgeStyle=orthogonalEdgeStyle;rounded=0;orthogonalLoop=1;jettySize=auto;html=1;entryX=0.5;entryY=0;entryDx=0;entryDy=0;" edge="1" parent="1" source="y2D_7VBED0uBOT9pCtEF-11" target="y2D_7VBED0uBOT9pCtEF-16">
          <mxGeometry relative="1" as="geometry" />
        </mxCell>
        <mxCell id="y2D_7VBED0uBOT9pCtEF-11" value="Y Label" style="swimlane;fontStyle=0;childLayout=stackLayout;horizontal=1;startSize=26;horizontalStack=0;resizeParent=1;resizeParentMax=0;resizeLast=0;collapsible=1;marginBottom=0;align=center;fontSize=14;" vertex="1" parent="1">
          <mxGeometry x="140" y="130" width="160" height="56" as="geometry" />
        </mxCell>
        <mxCell id="y2D_7VBED0uBOT9pCtEF-12" value="Auto-correlation" style="text;strokeColor=none;fillColor=none;spacingLeft=4;spacingRight=4;overflow=hidden;rotatable=0;points=[[0,0.5],[1,0.5]];portConstraint=eastwest;fontSize=12;" vertex="1" parent="y2D_7VBED0uBOT9pCtEF-11">
          <mxGeometry y="26" width="160" height="30" as="geometry" />
        </mxCell>
        <mxCell id="y2D_7VBED0uBOT9pCtEF-15" style="edgeStyle=orthogonalEdgeStyle;rounded=0;orthogonalLoop=1;jettySize=auto;html=1;exitX=1;exitY=0.5;exitDx=0;exitDy=0;entryX=0.5;entryY=0;entryDx=0;entryDy=0;" edge="1" parent="1" source="21ea969265ad0168-8" target="y2D_7VBED0uBOT9pCtEF-11">
          <mxGeometry relative="1" as="geometry">
            <Array as="points">
              <mxPoint x="220" y="75" />
            </Array>
          </mxGeometry>
        </mxCell>
        <mxCell id="y2D_7VBED0uBOT9pCtEF-16" value="&lt;p style=&quot;margin:0px;margin-top:4px;text-align:center;text-decoration:underline;&quot;&gt;&lt;b&gt;Auto-correlation:List&lt;/b&gt;&lt;/p&gt;&lt;hr&gt;&lt;p style=&quot;margin:0px;margin-left:8px;&quot;&gt;size: (n, bin number)&lt;/p&gt;&lt;p style=&quot;margin:0px;margin-left:8px;&quot;&gt;value: float &amp;gt;= 0&lt;/p&gt;&lt;p style=&quot;margin:0px;margin-left:8px;&quot;&gt;&lt;br&gt;&lt;/p&gt;" style="verticalAlign=top;align=left;overflow=fill;fontSize=12;fontFamily=Helvetica;html=1;" vertex="1" parent="1">
          <mxGeometry x="140" y="260.5" width="160" height="70" as="geometry" />
        </mxCell>
        <mxCell id="y2D_7VBED0uBOT9pCtEF-70" style="edgeStyle=orthogonalEdgeStyle;rounded=0;orthogonalLoop=1;jettySize=auto;html=1;exitX=1;exitY=0.5;exitDx=0;exitDy=0;entryX=0.5;entryY=0;entryDx=0;entryDy=0;fillColor=#f8cecc;strokeColor=#FF0000;strokeWidth=3;" edge="1" parent="1" source="y2D_7VBED0uBOT9pCtEF-18" target="y2D_7VBED0uBOT9pCtEF-42">
          <mxGeometry relative="1" as="geometry">
            <Array as="points">
              <mxPoint x="760" y="76" />
              <mxPoint x="760" y="360" />
              <mxPoint x="520" y="360" />
            </Array>
          </mxGeometry>
        </mxCell>
        <mxCell id="y2D_7VBED0uBOT9pCtEF-73" value="Input to Model" style="edgeLabel;html=1;align=center;verticalAlign=middle;resizable=0;points=[];" vertex="1" connectable="0" parent="y2D_7VBED0uBOT9pCtEF-70">
          <mxGeometry x="0.3992" relative="1" as="geometry">
            <mxPoint x="1" as="offset" />
          </mxGeometry>
        </mxCell>
        <mxCell id="y2D_7VBED0uBOT9pCtEF-18" value="&lt;p style=&quot;margin:0px;margin-top:4px;text-align:center;text-decoration:underline;&quot;&gt;&lt;b&gt;Binned data:List&lt;/b&gt;&lt;/p&gt;&lt;hr&gt;&lt;p style=&quot;margin:0px;margin-left:8px;&quot;&gt;size: (batch, bin number)&lt;/p&gt;&lt;p style=&quot;margin:0px;margin-left:8px;&quot;&gt;value: integer &amp;gt;= 0&lt;/p&gt;" style="verticalAlign=top;align=left;overflow=fill;fontSize=12;fontFamily=Helvetica;html=1;" vertex="1" parent="1">
          <mxGeometry x="560" y="40.5" width="160" height="70" as="geometry" />
        </mxCell>
        <mxCell id="y2D_7VBED0uBOT9pCtEF-19" style="edgeStyle=orthogonalEdgeStyle;rounded=0;orthogonalLoop=1;jettySize=auto;html=1;exitX=1;exitY=0.5;exitDx=0;exitDy=0;entryX=0.5;entryY=0;entryDx=0;entryDy=0;" edge="1" parent="1" source="y2D_7VBED0uBOT9pCtEF-7" target="y2D_7VBED0uBOT9pCtEF-18">
          <mxGeometry relative="1" as="geometry">
            <mxPoint x="480" y="11.5" as="sourcePoint" />
          </mxGeometry>
        </mxCell>
        <mxCell id="y2D_7VBED0uBOT9pCtEF-71" style="edgeStyle=orthogonalEdgeStyle;rounded=0;orthogonalLoop=1;jettySize=auto;html=1;exitX=1;exitY=0.5;exitDx=0;exitDy=0;strokeColor=#FF0000;strokeWidth=3;" edge="1" parent="1" source="y2D_7VBED0uBOT9pCtEF-20">
          <mxGeometry relative="1" as="geometry">
            <mxPoint x="760" y="186" as="targetPoint" />
          </mxGeometry>
        </mxCell>
        <mxCell id="y2D_7VBED0uBOT9pCtEF-20" value="&lt;p style=&quot;margin:0px;margin-top:4px;text-align:center;text-decoration:underline;&quot;&gt;&lt;b&gt;Binned cut data:List&lt;/b&gt;&lt;/p&gt;&lt;hr&gt;&lt;p style=&quot;margin:0px;margin-left:8px;&quot;&gt;size: (batch, bin number)&lt;/p&gt;&lt;p style=&quot;margin:0px;margin-left:8px;&quot;&gt;value: integer &amp;gt;= 1,2,3&lt;/p&gt;" style="verticalAlign=top;align=left;overflow=fill;fontSize=12;fontFamily=Helvetica;html=1;" vertex="1" parent="1">
          <mxGeometry x="560" y="150.5" width="160" height="70" as="geometry" />
        </mxCell>
        <mxCell id="y2D_7VBED0uBOT9pCtEF-72" style="edgeStyle=orthogonalEdgeStyle;rounded=0;orthogonalLoop=1;jettySize=auto;html=1;exitX=1;exitY=0.5;exitDx=0;exitDy=0;strokeColor=#FF0000;strokeWidth=3;" edge="1" parent="1" source="y2D_7VBED0uBOT9pCtEF-21">
          <mxGeometry relative="1" as="geometry">
            <mxPoint x="760" y="296" as="targetPoint" />
          </mxGeometry>
        </mxCell>
        <mxCell id="y2D_7VBED0uBOT9pCtEF-21" value="&lt;p style=&quot;margin:0px;margin-top:4px;text-align:center;text-decoration:underline;&quot;&gt;&lt;b&gt;Photon arrival time:List&lt;/b&gt;&lt;/p&gt;&lt;hr&gt;&lt;p style=&quot;margin:0px;margin-left:8px;&quot;&gt;size: (batch, set number)&lt;/p&gt;&lt;p style=&quot;margin:0px;margin-left:8px;&quot;&gt;value: integer &amp;gt;= 0&lt;/p&gt;" style="verticalAlign=top;align=left;overflow=fill;fontSize=12;fontFamily=Helvetica;html=1;" vertex="1" parent="1">
          <mxGeometry x="560" y="260.5" width="160" height="70" as="geometry" />
        </mxCell>
        <mxCell id="y2D_7VBED0uBOT9pCtEF-22" style="edgeStyle=orthogonalEdgeStyle;rounded=0;orthogonalLoop=1;jettySize=auto;html=1;exitX=1;exitY=0.5;exitDx=0;exitDy=0;entryX=0.5;entryY=0;entryDx=0;entryDy=0;" edge="1" parent="1" source="y2D_7VBED0uBOT9pCtEF-8" target="y2D_7VBED0uBOT9pCtEF-20">
          <mxGeometry relative="1" as="geometry">
            <mxPoint x="480" y="41.5" as="sourcePoint" />
            <Array as="points">
              <mxPoint x="540" y="201" />
              <mxPoint x="540" y="131" />
              <mxPoint x="640" y="131" />
            </Array>
          </mxGeometry>
        </mxCell>
        <mxCell id="y2D_7VBED0uBOT9pCtEF-23" style="edgeStyle=orthogonalEdgeStyle;rounded=0;orthogonalLoop=1;jettySize=auto;html=1;exitX=1;exitY=0.5;exitDx=0;exitDy=0;" edge="1" parent="1" source="y2D_7VBED0uBOT9pCtEF-9" target="y2D_7VBED0uBOT9pCtEF-21">
          <mxGeometry relative="1" as="geometry">
            <mxPoint x="480" y="71.5" as="sourcePoint" />
            <Array as="points">
              <mxPoint x="640" y="231" />
            </Array>
          </mxGeometry>
        </mxCell>
        <mxCell id="y2D_7VBED0uBOT9pCtEF-41" style="edgeStyle=orthogonalEdgeStyle;rounded=0;orthogonalLoop=1;jettySize=auto;html=1;exitX=1;exitY=0.5;exitDx=0;exitDy=0;entryX=0.5;entryY=0;entryDx=0;entryDy=0;" edge="1" parent="1" source="y2D_7VBED0uBOT9pCtEF-32" target="y2D_7VBED0uBOT9pCtEF-37">
          <mxGeometry relative="1" as="geometry" />
        </mxCell>
        <mxCell id="y2D_7VBED0uBOT9pCtEF-32" value="&lt;p style=&quot;margin:0px;margin-top:6px;text-align:center;&quot;&gt;&lt;b&gt;Component&lt;/b&gt;&lt;/p&gt;&lt;hr&gt;&lt;p style=&quot;margin:0px;margin-left:8px;&quot;&gt;+ Attribute1: Type of Model&lt;br&gt;+ Attribute2: Input size/type&lt;/p&gt;&lt;p style=&quot;margin: 0px 0px 0px 8px;&quot;&gt;+ Attribute3: Predict size&lt;/p&gt;&lt;p style=&quot;margin: 0px 0px 0px 8px;&quot;&gt;+ Attribute4: Save weight name&lt;/p&gt;&lt;p style=&quot;margin: 0px 0px 0px 8px;&quot;&gt;+ Attribute5: Plotting graph&lt;/p&gt;&lt;div&gt;&lt;br&gt;&lt;/div&gt;&lt;div&gt;&lt;br&gt;&lt;/div&gt;&lt;div&gt;&lt;br&gt;&lt;/div&gt;&lt;p style=&quot;margin:0px;margin-left:8px;&quot;&gt;&lt;br&gt;&lt;/p&gt;" style="align=left;overflow=fill;html=1;dropTarget=0;" vertex="1" parent="1">
          <mxGeometry x="10" y="460" width="180" height="110" as="geometry" />
        </mxCell>
        <mxCell id="y2D_7VBED0uBOT9pCtEF-33" value="" style="shape=component;jettyWidth=8;jettyHeight=4;" vertex="1" parent="y2D_7VBED0uBOT9pCtEF-32">
          <mxGeometry x="1" width="20" height="20" relative="1" as="geometry">
            <mxPoint x="-24" y="4" as="offset" />
          </mxGeometry>
        </mxCell>
        <mxCell id="y2D_7VBED0uBOT9pCtEF-43" value="" style="edgeStyle=orthogonalEdgeStyle;rounded=0;orthogonalLoop=1;jettySize=auto;html=1;" edge="1" parent="1" source="y2D_7VBED0uBOT9pCtEF-37" target="y2D_7VBED0uBOT9pCtEF-42">
          <mxGeometry relative="1" as="geometry" />
        </mxCell>
        <mxCell id="y2D_7VBED0uBOT9pCtEF-37" value="Type of Model" style="swimlane;fontStyle=0;childLayout=stackLayout;horizontal=1;startSize=26;horizontalStack=0;resizeParent=1;resizeParentMax=0;resizeLast=0;collapsible=1;marginBottom=0;align=center;fontSize=14;" vertex="1" parent="1">
          <mxGeometry x="240" y="380" width="160" height="116" as="geometry" />
        </mxCell>
        <mxCell id="y2D_7VBED0uBOT9pCtEF-38" value="DNN" style="text;strokeColor=none;fillColor=none;spacingLeft=4;spacingRight=4;overflow=hidden;rotatable=0;points=[[0,0.5],[1,0.5]];portConstraint=eastwest;fontSize=12;" vertex="1" parent="y2D_7VBED0uBOT9pCtEF-37">
          <mxGeometry y="26" width="160" height="30" as="geometry" />
        </mxCell>
        <mxCell id="y2D_7VBED0uBOT9pCtEF-39" value="MLP" style="text;strokeColor=none;fillColor=none;spacingLeft=4;spacingRight=4;overflow=hidden;rotatable=0;points=[[0,0.5],[1,0.5]];portConstraint=eastwest;fontSize=12;" vertex="1" parent="y2D_7VBED0uBOT9pCtEF-37">
          <mxGeometry y="56" width="160" height="30" as="geometry" />
        </mxCell>
        <mxCell id="y2D_7VBED0uBOT9pCtEF-40" value="LSTM-Dense" style="text;strokeColor=none;fillColor=none;spacingLeft=4;spacingRight=4;overflow=hidden;rotatable=0;points=[[0,0.5],[1,0.5]];portConstraint=eastwest;fontSize=12;" vertex="1" parent="y2D_7VBED0uBOT9pCtEF-37">
          <mxGeometry y="86" width="160" height="30" as="geometry" />
        </mxCell>
        <mxCell id="y2D_7VBED0uBOT9pCtEF-44" value="Dense" style="edgeStyle=orthogonalEdgeStyle;rounded=0;orthogonalLoop=1;jettySize=auto;html=1;exitX=1;exitY=0.5;exitDx=0;exitDy=0;entryX=0.5;entryY=0;entryDx=0;entryDy=0;" edge="1" parent="1" source="y2D_7VBED0uBOT9pCtEF-42" target="y2D_7VBED0uBOT9pCtEF-46">
          <mxGeometry x="-0.3333" relative="1" as="geometry">
            <mxPoint x="540" y="570" as="targetPoint" />
            <Array as="points">
              <mxPoint x="650" y="438" />
            </Array>
            <mxPoint as="offset" />
          </mxGeometry>
        </mxCell>
        <mxCell id="y2D_7VBED0uBOT9pCtEF-45" value="LSTM" style="edgeStyle=orthogonalEdgeStyle;rounded=0;orthogonalLoop=1;jettySize=auto;html=1;exitX=0.5;exitY=1;exitDx=0;exitDy=0;entryX=0.5;entryY=0;entryDx=0;entryDy=0;" edge="1" parent="1" source="y2D_7VBED0uBOT9pCtEF-42" target="y2D_7VBED0uBOT9pCtEF-50">
          <mxGeometry relative="1" as="geometry">
            <mxPoint x="320" y="660" as="targetPoint" />
            <mxPoint as="offset" />
          </mxGeometry>
        </mxCell>
        <mxCell id="y2D_7VBED0uBOT9pCtEF-42" value="Dense or LSTM" style="rhombus;whiteSpace=wrap;html=1;" vertex="1" parent="1">
          <mxGeometry x="430" y="398" width="180" height="80" as="geometry" />
        </mxCell>
        <mxCell id="y2D_7VBED0uBOT9pCtEF-46" value="Input/Predict size" style="swimlane;fontStyle=0;childLayout=stackLayout;horizontal=1;startSize=26;horizontalStack=0;resizeParent=1;resizeParentMax=0;resizeLast=0;collapsible=1;marginBottom=0;align=center;fontSize=14;" vertex="1" parent="1">
          <mxGeometry x="560" y="600" width="180" height="70" as="geometry">
            <mxRectangle x="450" y="650" width="150" height="30" as="alternateBounds" />
          </mxGeometry>
        </mxCell>
        <mxCell id="y2D_7VBED0uBOT9pCtEF-47" value="input_shape = (1, column size)&#xa;predict_shape = (1, N)" style="text;strokeColor=none;fillColor=none;spacingLeft=4;spacingRight=4;overflow=hidden;rotatable=0;points=[[0,0.5],[1,0.5]];portConstraint=eastwest;fontSize=12;" vertex="1" parent="y2D_7VBED0uBOT9pCtEF-46">
          <mxGeometry y="26" width="180" height="44" as="geometry" />
        </mxCell>
        <mxCell id="y2D_7VBED0uBOT9pCtEF-54" style="edgeStyle=orthogonalEdgeStyle;rounded=0;orthogonalLoop=1;jettySize=auto;html=1;entryX=0.5;entryY=1;entryDx=0;entryDy=0;exitX=0.458;exitY=0.977;exitDx=0;exitDy=0;exitPerimeter=0;" edge="1" parent="1" source="y2D_7VBED0uBOT9pCtEF-51" target="y2D_7VBED0uBOT9pCtEF-53">
          <mxGeometry relative="1" as="geometry">
            <Array as="points">
              <mxPoint x="410" y="710" />
              <mxPoint x="875" y="710" />
            </Array>
          </mxGeometry>
        </mxCell>
        <mxCell id="y2D_7VBED0uBOT9pCtEF-57" value="Save" style="edgeLabel;html=1;align=center;verticalAlign=middle;resizable=0;points=[];" vertex="1" connectable="0" parent="y2D_7VBED0uBOT9pCtEF-54">
          <mxGeometry x="-0.0348" relative="1" as="geometry">
            <mxPoint x="9" as="offset" />
          </mxGeometry>
        </mxCell>
        <mxCell id="y2D_7VBED0uBOT9pCtEF-50" value="Input/Predict size" style="swimlane;fontStyle=0;childLayout=stackLayout;horizontal=1;startSize=26;horizontalStack=0;resizeParent=1;resizeParentMax=0;resizeLast=0;collapsible=1;marginBottom=0;align=center;fontSize=14;" vertex="1" parent="1">
          <mxGeometry x="300" y="600" width="240" height="70" as="geometry" />
        </mxCell>
        <mxCell id="y2D_7VBED0uBOT9pCtEF-51" value="input_shape = (row size, column size, 1)&#xa;predict_shape = (batch, N)" style="text;strokeColor=none;fillColor=none;spacingLeft=4;spacingRight=4;overflow=hidden;rotatable=0;points=[[0,0.5],[1,0.5]];portConstraint=eastwest;fontSize=12;" vertex="1" parent="y2D_7VBED0uBOT9pCtEF-50">
          <mxGeometry y="26" width="240" height="44" as="geometry" />
        </mxCell>
        <mxCell id="y2D_7VBED0uBOT9pCtEF-59" style="edgeStyle=orthogonalEdgeStyle;rounded=0;orthogonalLoop=1;jettySize=auto;html=1;exitX=0.5;exitY=0;exitDx=0;exitDy=0;entryX=0.5;entryY=1;entryDx=0;entryDy=0;" edge="1" parent="1" source="y2D_7VBED0uBOT9pCtEF-53" target="y2D_7VBED0uBOT9pCtEF-58">
          <mxGeometry relative="1" as="geometry" />
        </mxCell>
        <mxCell id="y2D_7VBED0uBOT9pCtEF-53" value="Weight Name" style="html=1;" vertex="1" parent="1">
          <mxGeometry x="820" y="623" width="110" height="50" as="geometry" />
        </mxCell>
        <mxCell id="y2D_7VBED0uBOT9pCtEF-55" style="edgeStyle=orthogonalEdgeStyle;rounded=0;orthogonalLoop=1;jettySize=auto;html=1;entryX=0;entryY=0.5;entryDx=0;entryDy=0;" edge="1" parent="1" source="y2D_7VBED0uBOT9pCtEF-47" target="y2D_7VBED0uBOT9pCtEF-53">
          <mxGeometry relative="1" as="geometry" />
        </mxCell>
        <mxCell id="y2D_7VBED0uBOT9pCtEF-56" value="Save" style="edgeLabel;html=1;align=center;verticalAlign=middle;resizable=0;points=[];" vertex="1" connectable="0" parent="y2D_7VBED0uBOT9pCtEF-55">
          <mxGeometry x="-0.05" y="-1" relative="1" as="geometry">
            <mxPoint as="offset" />
          </mxGeometry>
        </mxCell>
        <mxCell id="y2D_7VBED0uBOT9pCtEF-61" value="" style="edgeStyle=orthogonalEdgeStyle;rounded=0;orthogonalLoop=1;jettySize=auto;html=1;" edge="1" parent="1" source="y2D_7VBED0uBOT9pCtEF-58" target="y2D_7VBED0uBOT9pCtEF-60">
          <mxGeometry relative="1" as="geometry" />
        </mxCell>
        <mxCell id="y2D_7VBED0uBOT9pCtEF-62" value="No" style="edgeLabel;html=1;align=center;verticalAlign=middle;resizable=0;points=[];" vertex="1" connectable="0" parent="y2D_7VBED0uBOT9pCtEF-61">
          <mxGeometry x="-0.2" relative="1" as="geometry">
            <mxPoint as="offset" />
          </mxGeometry>
        </mxCell>
        <mxCell id="y2D_7VBED0uBOT9pCtEF-67" style="edgeStyle=orthogonalEdgeStyle;rounded=0;orthogonalLoop=1;jettySize=auto;html=1;exitX=0.5;exitY=0;exitDx=0;exitDy=0;" edge="1" parent="1" source="y2D_7VBED0uBOT9pCtEF-58" target="y2D_7VBED0uBOT9pCtEF-63">
          <mxGeometry relative="1" as="geometry" />
        </mxCell>
        <mxCell id="y2D_7VBED0uBOT9pCtEF-68" value="Yes" style="edgeLabel;html=1;align=center;verticalAlign=middle;resizable=0;points=[];" vertex="1" connectable="0" parent="y2D_7VBED0uBOT9pCtEF-67">
          <mxGeometry x="-0.0746" y="1" relative="1" as="geometry">
            <mxPoint as="offset" />
          </mxGeometry>
        </mxCell>
        <mxCell id="y2D_7VBED0uBOT9pCtEF-58" value="Plotting?" style="rhombus;whiteSpace=wrap;html=1;" vertex="1" parent="1">
          <mxGeometry x="785" y="520" width="180" height="80" as="geometry" />
        </mxCell>
        <mxCell id="y2D_7VBED0uBOT9pCtEF-60" value="End" style="ellipse;whiteSpace=wrap;html=1;" vertex="1" parent="1">
          <mxGeometry x="660" y="550" width="65" height="20" as="geometry" />
        </mxCell>
        <mxCell id="y2D_7VBED0uBOT9pCtEF-63" value="Plot graph" style="swimlane;fontStyle=0;childLayout=stackLayout;horizontal=1;startSize=26;horizontalStack=0;resizeParent=1;resizeParentMax=0;resizeLast=0;collapsible=1;marginBottom=0;align=center;fontSize=14;" vertex="1" parent="1">
          <mxGeometry x="795" y="367" width="160" height="86" as="geometry" />
        </mxCell>
        <mxCell id="y2D_7VBED0uBOT9pCtEF-64" value="Save the figure" style="text;strokeColor=none;fillColor=none;spacingLeft=4;spacingRight=4;overflow=hidden;rotatable=0;points=[[0,0.5],[1,0.5]];portConstraint=eastwest;fontSize=12;" vertex="1" parent="y2D_7VBED0uBOT9pCtEF-63">
          <mxGeometry y="26" width="160" height="30" as="geometry" />
        </mxCell>
        <mxCell id="y2D_7VBED0uBOT9pCtEF-65" value="Show the figure" style="text;strokeColor=none;fillColor=none;spacingLeft=4;spacingRight=4;overflow=hidden;rotatable=0;points=[[0,0.5],[1,0.5]];portConstraint=eastwest;fontSize=12;" vertex="1" parent="y2D_7VBED0uBOT9pCtEF-63">
          <mxGeometry y="56" width="160" height="30" as="geometry" />
        </mxCell>
      </root>
    </mxGraphModel>
  </diagram>
</mxfile>
